<svg id="visual" viewBox="0 0 450 900" width="450" height="900" xmlns="http://www.w3.org/2000/svg" xmlns:xlink="http://www.w3.org/1999/xlink" version="1.1"><rect x="0" y="0" width="450" height="900" fill="#24374c"></rect><path d="M0 631L10.7 628.3C21.3 625.7 42.7 620.3 64.2 604C85.7 587.7 107.3 560.3 128.8 556.3C150.3 552.3 171.7 571.7 193 590.8C214.3 610 235.7 629 257 638.2C278.3 647.3 299.7 646.7 321.2 635.8C342.7 625 364.3 604 385.8 605.7C407.3 607.3 428.7 631.7 439.3 643.8L450 656L450 901L439.3 901C428.7 901 407.3 901 385.8 901C364.3 901 342.7 901 321.2 901C299.7 901 278.3 901 257 901C235.7 901 214.3 901 193 901C171.7 901 150.3 901 128.8 901C107.3 901 85.7 901 64.2 901C42.7 901 21.3 901 10.7 901L0 901Z" fill="#4facf7"></path><path d="M0 665L10.7 653.3C21.3 641.7 42.7 618.3 64.2 614.7C85.7 611 107.3 627 128.8 647C150.3 667 171.7 691 193 683.3C214.3 675.7 235.7 636.3 257 625.7C278.3 615 299.7 633 321.2 642.2C342.7 651.3 364.3 651.7 385.8 658.3C407.3 665 428.7 678 439.3 684.5L450 691L450 901L439.3 901C428.7 901 407.3 901 385.8 901C364.3 901 342.7 901 321.2 901C299.7 901 278.3 901 257 901C235.7 901 214.3 901 193 901C171.7 901 150.3 901 128.8 901C107.3 901 85.7 901 64.2 901C42.7 901 21.3 901 10.7 901L0 901Z" fill="#2b9dfc"></path><path d="M0 719L10.7 711C21.3 703 42.7 687 64.2 686.5C85.7 686 107.3 701 128.8 712.2C150.3 723.3 171.7 730.7 193 725C214.3 719.3 235.7 700.7 257 702C278.3 703.3 299.7 724.7 321.2 729C342.7 733.3 364.3 720.7 385.8 707.8C407.3 695 428.7 682 439.3 675.5L450 669L450 901L439.3 901C428.7 901 407.3 901 385.8 901C364.3 901 342.7 901 321.2 901C299.7 901 278.3 901 257 901C235.7 901 214.3 901 193 901C171.7 901 150.3 901 128.8 901C107.3 901 85.7 901 64.2 901C42.7 901 21.3 901 10.7 901L0 901Z" fill="#008cff"></path><path d="M0 786L10.7 784.8C21.3 783.7 42.7 781.3 64.2 776.8C85.7 772.3 107.3 765.7 128.8 758.7C150.3 751.7 171.7 744.3 193 745.8C214.3 747.3 235.7 757.7 257 768.5C278.3 779.3 299.7 790.7 321.2 792.5C342.7 794.3 364.3 786.7 385.8 785C407.3 783.3 428.7 787.7 439.3 789.8L450 792L450 901L439.3 901C428.7 901 407.3 901 385.8 901C364.3 901 342.7 901 321.2 901C299.7 901 278.3 901 257 901C235.7 901 214.3 901 193 901C171.7 901 150.3 901 128.8 901C107.3 901 85.7 901 64.2 901C42.7 901 21.3 901 10.7 901L0 901Z" fill="#007aff"></path><path d="M0 790L10.7 794.7C21.3 799.3 42.7 808.7 64.2 808.2C85.7 807.7 107.3 797.3 128.8 801C150.3 804.7 171.7 822.3 193 824.5C214.3 826.7 235.7 813.3 257 805C278.3 796.7 299.7 793.3 321.2 800.2C342.7 807 364.3 824 385.8 823.8C407.3 823.7 428.7 806.3 439.3 797.7L450 789L450 901L439.3 901C428.7 901 407.3 901 385.8 901C364.3 901 342.7 901 321.2 901C299.7 901 278.3 901 257 901C235.7 901 214.3 901 193 901C171.7 901 150.3 901 128.8 901C107.3 901 85.7 901 64.2 901C42.7 901 21.3 901 10.7 901L0 901Z" fill="#0066ff"></path></svg>